HIERARCHY
ROOT hip
{
  OFFSET 0 0 0
  CHANNELS 6 Xposition Yposition Zposition Zrotation Yrotation Xrotation
  JOINT abdomen
  {
    OFFSET 0 20.6881 -0.73152
    CHANNELS 3 Zrotation Xrotation Yrotation
    JOINT chest
    {
      OFFSET 0 11.7043 -0.48768
      CHANNELS 3 Zrotation Xrotation Yrotation
      JOINT neck
      {
        OFFSET 0 22.1894 -2.19456
        CHANNELS 3 Zrotation Xrotation Yrotation
        JOINT head
        {
          OFFSET -0.24384 7.07133 1.2192
          CHANNELS 3 Zrotation Xrotation Yrotation
          JOINT leftEye
          {
            OFFSET 4.14528 8.04674 8.04672
            CHANNELS 3 Zrotation Xrotation Yrotation
            End Site
            {
              OFFSET 1 0 0
            }
          }
          JOINT rightEye
          {
            OFFSET -3.6576 8.04674 8.04672
            CHANNELS 3 Zrotation Xrotation Yrotation
            End Site
            {
              OFFSET 1 0 0
            }
          }
        }
      }
      JOINT rCollar
      {
        OFFSET -2.68224 19.2634 -4.8768
        CHANNELS 3 Zrotation Xrotation Yrotation
        JOINT rShldr
        {
          OFFSET -8.77824 -1.95073 1.46304
          CHANNELS 3 Zrotation Xrotation Yrotation
          JOINT rForeArm
          {
            OFFSET -28.1742 -1.7115 0.48768
            CHANNELS 3 Zrotation Xrotation Yrotation
            JOINT rHand
            {
              OFFSET -22.5879 0.773209 7.07136
              CHANNELS 3 Zrotation Xrotation Yrotation
              JOINT rThumb1
              {
                OFFSET -1.2192 -0.487915 3.41376
                CHANNELS 3 Zrotation Xrotation Yrotation
                JOINT rThumb2
                {
                  OFFSET -3.37035 -0.52449 3.41376
                  CHANNELS 3 Zrotation Xrotation Yrotation
                  End Site
                  {
                    OFFSET -1.78271 -1.18214 1.43049
                  }
                }
              }
              JOINT rIndex1
              {
                OFFSET -7.75947 0.938293 5.60832
                CHANNELS 3 Zrotation Xrotation Yrotation
                JOINT rIndex2
                {
                  OFFSET -2.54057 -0.884171 1.56538
                  CHANNELS 3 Zrotation Xrotation Yrotation
                  End Site
                  {
                    OFFSET -1.62519 -0.234802 1.16502
                  }
                }
              }
              JOINT rMid1
              {
                OFFSET -8.24714 1.18213 3.41376
                CHANNELS 3 Zrotation Xrotation Yrotation
                JOINT rMid2
                {
                  OFFSET -3.10165 -0.590103 1.0647
                  CHANNELS 3 Zrotation Xrotation Yrotation
                  End Site
                  {
                    OFFSET -2.48547 -0.328903 0.83742
                  }
                }
              }
              JOINT rRing1
              {
                OFFSET -8.82822 0.546677 1.51678
                CHANNELS 3 Zrotation Xrotation Yrotation
                JOINT rRing2
                {
                  OFFSET -2.60934 -0.819778 -0.0198488
                  CHANNELS 3 Zrotation Xrotation Yrotation
                  End Site
                  {
                    OFFSET -2.33842 -0.294052 0.168128
                  }
                }
              }
              JOINT rPinky1
              {
                OFFSET -8.27202 -0.0477905 -0.4584
                CHANNELS 3 Zrotation Xrotation Yrotation
                JOINT rPinky2
                {
                  OFFSET -1.82734 -0.647385 -0.700984
                  CHANNELS 3 Zrotation Xrotation Yrotation
                  End Site
                  {
                    OFFSET -1.69225 -0.51767 -0.607171
                  }
                }
              }
            }
          }
        }
      }
      JOINT lCollar
      {
        OFFSET 2.68224 19.2634 -4.8768
        CHANNELS 3 Zrotation Xrotation Yrotation
        JOINT lShldr
        {
          OFFSET 8.77824 -1.95073 1.46304
          CHANNELS 3 Zrotation Xrotation Yrotation
          JOINT lForeArm
          {
            OFFSET 28.1742 -1.7115 0.48768
            CHANNELS 3 Zrotation Xrotation Yrotation
            JOINT lHand
            {
              OFFSET 22.5879 0.773209 7.07136
              CHANNELS 3 Zrotation Xrotation Yrotation
              JOINT lThumb1
              {
                OFFSET 1.2192 -0.487915 3.41376
                CHANNELS 3 Zrotation Xrotation Yrotation
                JOINT lThumb2
                {
                  OFFSET 3.37035 -0.52449 3.41376
                  CHANNELS 3 Zrotation Xrotation Yrotation
                  End Site
                  {
                    OFFSET 1.78271 -1.18214 1.43049
                  }
                }
              }
              JOINT lIndex1
              {
                OFFSET 7.75947 0.938293 5.60832
                CHANNELS 3 Zrotation Xrotation Yrotation
                JOINT lIndex2
                {
                  OFFSET 2.54057 -0.884171 1.56538
                  CHANNELS 3 Zrotation Xrotation Yrotation
                  End Site
                  {
                    OFFSET 1.62519 -0.234802 1.16502
                  }
                }
              }
              JOINT lMid1
              {
                OFFSET 8.24714 1.18213 3.41376
                CHANNELS 3 Zrotation Xrotation Yrotation
                JOINT lMid2
                {
                  OFFSET 3.10165 -0.590103 1.0647
                  CHANNELS 3 Zrotation Xrotation Yrotation
                  End Site
                  {
                    OFFSET 2.48547 -0.328903 0.83742
                  }
                }
              }
              JOINT lRing1
              {
                OFFSET 8.82822 0.546677 1.51678
                CHANNELS 3 Zrotation Xrotation Yrotation
                JOINT lRing2
                {
                  OFFSET 2.60934 -0.819778 -0.0198488
                  CHANNELS 3 Zrotation Xrotation Yrotation
                  End Site
                  {
                    OFFSET 2.33842 -0.294052 0.168128
                  }
                }
              }
              JOINT lPinky1
              {
                OFFSET 8.27202 -0.0477905 -0.4584
                CHANNELS 3 Zrotation Xrotation Yrotation
                JOINT lPinky2
                {
                  OFFSET 1.82734 -0.647385 -0.700984
                  CHANNELS 3 Zrotation Xrotation Yrotation
                  End Site
                  {
                    OFFSET 1.69225 -0.51767 -0.607171
                  }
                }
              }
            }
          }
        }
      }
    }
  }
  JOINT rButtock
  {
    OFFSET -8.77824 4.35084 1.2192
    CHANNELS 3 Zrotation Xrotation Yrotation
    JOINT rThigh
    {
      OFFSET 0 -1.70687 -2.19456
      CHANNELS 3 Zrotation Xrotation Yrotation
      JOINT rShin
      {
        OFFSET 0 -36.8199 0.73152
        CHANNELS 3 Zrotation Xrotation Yrotation
        JOINT rFoot
        {
          OFFSET 0.73152 -45.1104 -5.12064
          CHANNELS 3 Zrotation Xrotation Yrotation
          End Site
          {
            OFFSET -1.1221 -3.69964 12.103
          }
        }
      }
    }
  }
  JOINT lButtock
  {
    OFFSET 8.77824 4.35084 1.2192
    CHANNELS 3 Zrotation Xrotation Yrotation
    JOINT lThigh
    {
      OFFSET 0 -1.70687 -2.19456
      CHANNELS 3 Zrotation Xrotation Yrotation
      JOINT lShin
      {
        OFFSET 0 -36.8199 0.73152
        CHANNELS 3 Zrotation Xrotation Yrotation
        JOINT lFoot
        {
          OFFSET -0.73152 -45.1104 -5.12064
          CHANNELS 3 Zrotation Xrotation Yrotation
          End Site
          {
            OFFSET 1.1221 -3.69964 12.103
          }
        }
      }
    }
  }
}
MOTION
Frames:	8
Frame Time:	0.00833333
0.0 0.0 0.0 0.0 0.0 0.0 0.0 0.0 0.0 0.0 0.0 0.0 0.0 0.0 0.0 0.0 0.0 0.0 0.0 0.0 0.0 0.0 0.0 0.0 0.0 0.0 0.0 0.0 0.0 0.0 0.0 0.0 0.0 0.0 0.0 0.0 0.0 0.0 0.0 0.0 0.0 0.0 0.0 0.0 0.0 0.0 0.0 0.0 0.0 0.0 0.0 0.0 0.0 0.0 0.0 0.0 0.0 0.0 0.0 0.0 0.0 0.0 0.0 0.0 0.0 0.0 0.0 0.0 0.0 0.0 0.0 0.0 0.0 0.0 0.0 0.0 0.0 0.0 0.0 0.0 0.0 0.0 0.0 0.0 0.0 0.0 0.0 0.0 0.0 0.0 0.0 0.0 0.0 0.0 0.0 0.0 0.0 0.0 0.0 0.0 0.0 0.0 0.0 0.0 0.0 0.0 0.0 0.0 0.0 0.0 0.0 0.0 0.0 0.0 0.0 0.0 0.0 0.0 0.0 0.0 0.0 0.0 0.0 0.0 0.0 0.0 0.0 0.0 0.0 0.0 0.0 0.0
-36.6479 65.7734 -190.574 0.0 -0.0 0.0 -0.0 -0.0 -0.0 0.0 0.0 -0.0 10.034043 15.923643 138.388627 -2.970543 18.523473 -139.311015 -0.0 -0.0 0.0 -0.0 -0.0 0.0 -80.1661 68.371792 83.260848 17.023964 0.054489 -1.034547 0.514944 67.684658 -31.379182 168.471472 -22.438533 142.939356 10.096554 -10.085667 -0.671099 -24.845294 22.373505 16.293156 -155.193415 -24.299992 122.142835 -155.295723 -26.182028 119.073575 89.035113 -81.393384 59.759886 -163.381131 -4.541307 140.037753 -145.099706 -1.521107 -178.650165 -142.102068 -24.729174 -175.71262 -12.006991 -23.632071 -11.402645 7.992245 25.031311 7.057291 -3.542039 -62.05305 13.039183 117.600552 70.735118 -116.669386 -3.076709 -45.003152 -0.032949 2.585942 8.271708 0.096547 0.543938 0.536215 -0.086055 -5.353386 -6.974023 3.924986 -45.282556 -63.865437 -4.306423 160.174962 -14.565635 -104.512162 8.305325 20.652672 -5.560806 -9.091635 -28.602259 2.76704 72.757246 -72.143382 89.772159 139.977412 39.898028 -156.659329 -12.252484 41.424931 -10.280249 148.954147 8.521095 140.867082 -0.0 -0.0 -0.0 -0.0 0.0 -0.0 3.278114 0.368279 29.076796 167.356363 -46.120512 35.46604 -0.0 -0.0 -0.0 -0.0 0.0 -0.0 -3.278114 0.368279 -29.076796 152.580214 -21.265757 -45.832494
-36.6486 65.8225 -190.576 -0.0 0.0 0.0 -0.0 -0.0 -0.0 0.0 0.0 -0.0 -8.046077 11.329039 -86.701725 11.766988 7.385618 86.738976 -0.0 -0.0 0.0 -0.0 -0.0 0.0 -155.569543 -3.943241 161.929333 -151.444747 9.088836 160.908924 -179.500145 0.804739 144.453607 172.143272 -12.213448 144.391656 -178.927535 -16.453687 89.421826 179.573378 -16.837063 98.714388 73.41997 -73.571281 26.563334 -173.530055 -32.698013 101.780224 -160.09819 -4.901163 142.968881 -4.165866 26.14152 6.254157 -0.05843 -3.429791 -1.079752 -3.450963 29.27785 5.399339 1.482059 4.003653 1.360876 -161.510502 52.884561 -149.631086 155.716846 -4.925325 -162.135615 -21.704674 -11.173819 -16.08836 -6.484609 -1.792441 33.513099 -172.127916 -12.25902 -144.386834 -93.028426 -51.083891 -40.500925 16.002964 -45.159282 30.548603 14.228542 19.203392 -9.559881 71.284923 51.681698 -44.22954 -68.983989 -80.15399 -40.578188 163.873845 -5.289579 -140.122074 145.119466 0.267753 179.212454 -17.624502 -24.163477 12.777836 29.627384 -40.969672 28.61639 153.629514 35.299454 149.982182 -0.0 0.0 -0.0 -0.0 -0.0 -0.0 -5.574351 5.497443 -72.942575 131.573075 31.244296 -47.500003 -0.0 0.0 -0.0 -0.0 -0.0 -0.0 -4.059024 0.727339 -36.570238 75.955117 27.98495 -11.569276
-36.6475 65.8804 -190.565 0.0 -0.0 0.0 -0.0 -0.0 -0.0 0.0 0.0 -0.0 10.034043 15.923643 138.388627 -2.970543 18.523473 -139.311015 -0.0 -0.0 0.0 -0.0 -0.0 0.0 -80.1661 68.371792 83.260848 17.023964 0.054489 -1.034547 0.514944 67.684658 -31.379182 168.471472 -22.438533 142.939356 76.384988 -49.199857 28.871344 -56.165218 31.915886 19.528571 -166.821797 -43.973781 122.061691 21.325271 3.997212 -5.215063 173.123457 -66.297779 137.614274 -6.001979 22.87558 8.29888 -145.099706 -1.521107 -178.650165 22.339855 36.204556 -4.547629 -143.020229 5.57458 -139.890919 -143.647632 8.039985 -141.184621 -3.542039 -62.05305 13.039183 117.600552 70.735118 -116.669386 -3.076709 -45.003152 -0.032949 2.585942 8.271708 0.096547 0.543938 0.536215 -0.086055 -5.353386 -6.974023 3.924986 -45.282556 -63.865437 -4.306423 160.174962 -14.565635 -104.512162 8.305325 20.652672 -5.560806 -9.091635 -28.602259 2.76704 72.757246 -72.143382 89.772159 139.977412 39.898028 -156.659329 -12.252484 41.424931 -10.280249 148.954147 8.521095 140.867082 -0.0 -0.0 -0.0 -0.0 0.0 -0.0 3.278114 0.368279 29.076796 167.356363 -46.120512 35.46604 -0.0 -0.0 -0.0 -0.0 0.0 -0.0 -3.278114 0.368279 -29.076796 152.580214 -21.265757 -45.832494
-36.6486 65.9261 -190.575 -0.0 0.0 0.0 -0.0 -0.0 -0.0 0.0 0.0 -0.0 -8.046077 11.329039 -86.701725 11.766988 7.385618 86.738976 -0.0 0.0 -0.0 -0.0 0.0 -0.0 -155.569543 -3.943241 161.929333 -151.444747 9.088836 160.908924 -179.500145 0.804739 144.453607 172.143272 -12.213448 144.391656 -178.927535 -16.453687 89.421826 179.573378 -16.837063 98.714388 73.41997 -73.571281 26.563334 -173.530055 -32.698013 101.780224 -160.09819 -4.901163 142.968881 -4.165866 26.14152 6.254157 -0.05843 -3.429791 -1.079752 -3.450963 29.27785 5.399339 1.482059 4.003653 1.360876 -161.510502 52.884561 -149.631086 155.716846 -4.925325 -162.135615 -21.704674 -11.173819 -16.08836 -6.484609 -1.792441 33.513099 -172.127916 -12.25902 -144.386834 -93.028426 -51.083891 -40.500925 16.002964 -45.159282 30.548603 14.228542 19.203392 -9.559881 71.284923 51.681698 -44.22954 -68.983989 -80.15399 -40.578188 163.873845 -5.289579 -140.122074 145.119466 0.267753 179.212454 -17.624502 -24.163477 12.777836 29.627384 -40.969672 28.61639 153.629514 35.299454 149.982182 -0.0 0.0 -0.0 -0.0 -0.0 -0.0 -5.574351 5.497443 -72.942575 131.573075 31.244296 -47.500003 -0.0 0.0 -0.0 -0.0 -0.0 -0.0 -4.059024 0.727339 -36.570238 75.955117 27.98495 -11.569276
-36.6471 65.9612 -190.582 0.0 -0.0 0.0 -0.0 -0.0 -0.0 0.0 0.0 -0.0 10.034043 15.923643 138.388627 -2.970543 18.523473 -139.311015 -0.0 -0.0 0.0 -0.0 -0.0 0.0 -80.1661 68.371792 83.260848 17.023964 0.054489 -1.034547 0.514944 67.684658 -31.379182 168.471472 -22.438533 142.939356 10.096554 -10.085667 -0.671099 -24.845294 22.373505 16.293156 -155.193415 -24.299992 122.142835 -155.295723 -26.182028 119.073575 89.035113 -81.393384 59.759886 -163.381131 -4.541307 140.037753 -145.099706 -1.521107 -178.650165 -142.102068 -24.729174 -175.71262 -12.006991 -23.632071 -11.402645 7.992245 25.031311 7.057291 -3.542039 -62.05305 13.039183 117.600552 70.735118 -116.669386 -3.076709 -45.003152 -0.032949 2.585942 8.271708 0.096547 0.543938 0.536215 -0.086055 -5.353386 -6.974023 3.924986 -45.282556 -63.865437 -4.306423 160.174962 -14.565635 -104.512162 8.305325 20.652672 -5.560806 -9.091635 -28.602259 2.76704 72.757246 -72.143382 89.772159 139.977412 39.898028 -156.659329 -12.252484 41.424931 -10.280249 148.954147 8.521095 140.867082 -0.0 -0.0 -0.0 -0.0 0.0 -0.0 3.278114 0.368279 29.076796 167.356363 -46.120512 35.46604 -0.0 -0.0 -0.0 -0.0 0.0 -0.0 -3.278114 0.368279 -29.076796 152.580214 -21.265757 -45.832494
-36.6389 65.9903 -190.585 0.0 -0.0 0.0 -0.0 -0.0 -0.0 0.0 0.0 -0.0 10.034043 15.923643 138.388627 -2.970543 18.523473 -139.311015 -0.0 -0.0 0.0 -0.0 -0.0 0.0 -80.1661 68.371792 83.260848 17.023964 0.054489 -1.034547 0.514944 67.684658 -31.379182 168.471472 -22.438533 142.939356 76.384988 -49.199857 28.871344 -56.165218 31.915886 19.528571 -166.821797 -43.973781 122.061691 21.325271 3.997212 -5.215063 173.123457 -66.297779 137.614274 -6.001979 22.87558 8.29888 -145.099706 -1.521107 -178.650165 22.339855 36.204556 -4.547629 -143.020229 5.57458 -139.890919 -143.647632 8.039985 -141.184621 -3.542039 -62.05305 13.039183 117.600552 70.735118 -116.669386 -3.076709 -45.003152 -0.032949 2.585942 8.271708 0.096547 0.543938 0.536215 -0.086055 -5.353386 -6.974023 3.924986 -45.282556 -63.865437 -4.306423 160.174962 -14.565635 -104.512162 8.305325 20.652672 -5.560806 -9.091635 -28.602259 2.76704 72.757246 -72.143382 89.772159 139.977412 39.898028 -156.659329 -12.252484 41.424931 -10.280249 148.954147 8.521095 140.867082 -0.0 -0.0 -0.0 -0.0 0.0 -0.0 3.278114 0.368279 29.076796 167.356363 -46.120512 35.46604 -0.0 -0.0 -0.0 -0.0 0.0 -0.0 -3.278114 0.368279 -29.076796 152.580214 -21.265757 -45.832494
-36.6289 66.003 -190.614 -0.0 0.0 0.0 -0.0 -0.0 -0.0 0.0 0.0 -0.0 -8.046077 11.329039 -86.701725 11.766988 7.385618 86.738976 -0.0 -0.0 0.0 -0.0 -0.0 0.0 -155.569543 -3.943241 161.929333 -151.444747 9.088836 160.908924 -179.500145 0.804739 144.453607 172.143272 -12.213448 144.391656 -178.927535 -16.453687 89.421826 179.573378 -16.837063 98.714388 73.41997 -73.571281 26.563334 -173.530055 -32.698013 101.780224 -160.09819 -4.901163 142.968881 -4.165866 26.14152 6.254157 -0.05843 -3.429791 -1.079752 -3.450963 29.27785 5.399339 1.482059 4.003653 1.360876 -161.510502 52.884561 -149.631086 155.716846 -4.925325 -162.135615 -21.704674 -11.173819 -16.08836 -6.484609 -1.792441 33.513099 -172.127916 -12.25902 -144.386834 -93.028426 -51.083891 -40.500925 16.002964 -45.159282 30.548603 14.228542 19.203392 -9.559881 71.284923 51.681698 -44.22954 -68.983989 -80.15399 -40.578188 163.873845 -5.289579 -140.122074 145.119466 0.267753 179.212454 -17.624502 -24.163477 12.777836 29.627384 -40.969672 28.61639 153.629514 35.299454 149.982182 -0.0 0.0 -0.0 -0.0 -0.0 -0.0 -5.574351 5.497443 -72.942575 131.573075 31.244296 -47.500003 -0.0 0.0 -0.0 -0.0 -0.0 -0.0 -4.059024 0.727339 -36.570238 75.955117 27.98495 -11.569276
